<svg width="171" height="195" fill="none" xmlns="http://www.w3.org/2000/svg"><g clip-path="url(#a)"><path d="M77.7 174.6 65 159a6.9 6.9 0 0 0-5.6-2.7 12 12 0 0 0-5.5 1.6l-5.5 2.7a19 19 0 0 1-9.3-6.3c-3.3-3.8-3.2-9-3-11l5.8-6c3.1-2.7 2.5-6.5 1.3-8.4l-.3-.3L28.4 110c-1-1.3-2.5-2-4.2-2-2.9 0-5.9 2-6.8 2.6C6.6 118.4 6 125.2 5.8 126v.8a88.6 88.6 0 0 0 35.5 58.5l2.9 2.3a25.5 25.5 0 0 0 16.5 6.4c2.4 0 4.5-.4 6.1-1.2 4.4-2 9.4-8 10.9-9.7 2.5-3.1 1.3-6.6.2-8.3l-.2-.2Zm-13.9 12c-.5.1-1.6.4-3 .4-1.6 0-7.1-.3-12-4.6l-3.2-2.6A82 82 0 0 1 13 126.1c.2-1 1.8-4.9 8.6-9.7.6-.5 1.5-1 2.1-1.2l13.5 17-7.5 7.6-.2 1c-.1.5-2 10.4 4.5 18a24.8 24.8 0 0 0 14.6 8.8l1 .2 7.7-3.8.2-.2a5.3 5.3 0 0 1 2.2-.6A1632.3 1632.3 0 0 0 72 178.8c-2.6 3.1-6.2 6.7-8.3 7.7ZM137.8 65.8c5.6-5.2 7.2-12 5-20.8a2.5 2.5 0 0 0-4-1.2l-8.2 7.4a9 9 0 0 1-4.5-5.4l6.8-6.7c1-1 1-2.4.1-3.4l-.2-.2-.7-.6c-.1 0-4-2-8.8-2-4.7 0-8.8 1.8-12 5.5-6 7-4.5 15-3.5 18.4l-3.5 3.5L94 51.1l4.7-3.3-20-13.7L68 44.7l13.7 20L85 60l9.2 10.3-3.3 3.3c-1.5-.5-3.9-1-6.7-1-5.4 0-10.2 2.1-14 6.3-.2.3-6.5 8.2-2.7 18.6a2.5 2.5 0 0 0 4 1l8.3-7.2c1.3.6 3.6 2 4.7 6l-7.4 7.4a2.5 2.5 0 0 0 1.2 4.2c.1 0 2.7.6 6.2.6 6.8 0 12-2.2 15.2-6.5a21 21 0 0 0 4-13.1L120 106l.2.2c1.5 1.2 4.3 2.7 7.5 2.7 2.2 0 4.6-.8 6.8-2.8l5.5-5.6h.1c5-5.4 2.3-11.8.1-14.4l-17-17c1.1.2 2.2.3 3.4.3 4.9 0 8.7-1.3 11.3-3.7ZM84.6 52l-2.8 4-7.3-10.7 4.8-4.7 10.6 7.2-4 2.8 14.8 13.3-4 4 1.1-1.1L84.6 52ZM98 85.5c.1.3 2.6 7.7-2.3 14.5-2.8 3.8-7.8 4.6-11.4 4.5l4.7-4.7c.6-.6.8-1.4.7-2.2C88 87.4 80 86 79.7 86c-.7 0-1.5.1-2 .6L71.5 92c-.6-5.5 2.4-9.4 2.7-9.9 2.7-3 6.1-4.5 10.1-4.5 3.6 0 6.3 1.2 6.3 1.2 1 .4 2 .2 2.8-.5l19-19c.7-.8 1-1.8.5-2.8 0 0-3.5-8.3 2.2-14.9 2.2-2.5 5-3.8 8.2-3.8 1.2 0 2.4.2 3.4.4l-5 5c-.6.6-.9 1.3-.8 2.1 1 8.3 9 11 9.3 11.2.9.3 1.8 0 2.5-.5l6-5.5c.4 4.9-1 8.6-4.3 11.7-2 1.9-5.3 2.3-7.8 2.3-3.7 0-7-.9-7-1-.8-.1-1.8.1-2.4.7L98.7 83c-.7.7-.9 1.7-.6 2.6Zm5.5 1.8Zm-.2-1ZM136.5 97l-5.5 5.5c-3.2 3-6.9.4-7.5-.1l-18.7-18.7 15-15-2 2 18.6 18.7c.5.6 3.1 4.3.1 7.6Zm-15.2-28Zm-.8-.2Z" fill="#fff"/><path d="M104.2 6a66 66 0 0 0-8.6 131.3v26.2s57.5-21.2 72-73.6l.2-.8.3-1.3.2-.8a66 66 0 0 0-64.1-81Zm57.3 79.4v.2l-.2.5-.3 1.2v.4l-.1.3a98 98 0 0 1-38.5 52.4c-7.4 5.5-14.5 9.5-19.8 12.2v-21.5l-6-.8a59 59 0 1 1 65-44.9Z" fill="#fff"/><path d="M54.6 188c-2.8 0-10-.6-16.6-6.4l-2.8-2.3c-9.5-7.4-29-22.8-35.5-58.5v-.8c0-.8.7-7.6 11.6-15.4.9-.6 4-2.5 6.8-2.5 1.7 0 3.2.6 4.1 1.9L37 122.5l.2.3c1.2 2 1.9 5.7-1.2 8.4l-6 6c0 2-.1 7.2 3.2 11a19 19 0 0 0 9.3 6.3l5.4-2.7c.7-.4 3-1.6 5.6-1.6 2.2 0 4.2 1 5.5 2.7l12.7 15.7.1.2c1.1 1.7 2.3 5.2-.2 8.3a41 41 0 0 1-10.8 9.7c-1.6.8-3.7 1.2-6.1 1.2ZM6.7 120.1a82 82 0 0 0 32.8 53.7l3.1 2.6c5 4.3 10.4 4.6 12 4.6 1.5 0 2.6-.3 3-.5 2.2-1 5.8-4.6 8.3-7.7a1646.5 1646.5 0 0 1-12.5-15.6c-.8 0-1.8.5-2.1.6l-.2.2-7.7 3.8-1-.2c-1.4-.2-8.4-1.5-14.6-8.8a23 23 0 0 1-4.6-18l.2-1 7.6-7.5-13.5-17c-.7.2-1.5.6-2.2 1-6.8 4.9-8.3 8.9-8.6 9.8Z" fill="#3A3A3A"/><path d="M78.4 103.5c-3.4 0-6-.6-6.1-.6a2.5 2.5 0 0 1-1.3-4.2l7.4-7.5c-1-3.8-3.3-5.3-4.6-6l-8.3 7.3a2.5 2.5 0 0 1-4-1A19.6 19.6 0 0 1 64.2 73c3.8-4.2 8.6-6.4 14-6.4 2.8 0 5.2.6 6.7 1.1l16.7-16.8c-1-3.4-2.4-11.5 3.6-18.4 3.1-3.7 7.3-5.6 12-5.6 4.8 0 8.6 2 8.8 2.1l.7.6.2.2c.9 1 .8 2.5-.1 3.4l-6.8 6.7a9 9 0 0 0 4.4 5.4l8.2-7.4a2.5 2.5 0 0 1 4.1 1.2c2.2 8.8.5 15.6-5 20.8-2.6 2.4-6.3 3.7-11.2 3.7-2.8 0-5.4-.4-6.9-.8L97.1 79.4C98 82.6 98.8 90 93.7 97c-3.1 4.3-8.4 6.5-15.3 6.5Zm-.2-5c3.7 0 8.7-.7 11.4-4.5 5-6.8 2.5-14.2 2.4-14.5-.3-.9-.1-2 .6-2.6L111 58.2c.6-.6 1.5-.8 2.4-.6 0 0 3.3.9 7 .9 2.4 0 5.8-.4 7.8-2.3 3.3-3.1 4.7-6.8 4.3-11.7l-6 5.5c-.7.6-1.7.8-2.5.5-.4-.1-8.3-2.9-9.3-11.2-.1-.8.1-1.5.7-2l5-5c-1-.3-2.1-.5-3.3-.5-3.3 0-6 1.3-8.2 3.8-5.7 6.6-2.2 14.8-2.2 15 .4.9.2 2-.5 2.7l-19 19c-.8.7-1.9 1-2.8.5 0 0-2.8-1.3-6.3-1.3-4 0-7.4 1.6-10.1 4.6-.4.5-3.3 4.4-2.8 10l6.2-5.5c.6-.5 1.3-.7 2-.6.4 0 8.3 1.4 10.1 11.6.2.8 0 1.6-.6 2.2l-4.8 4.7Z" fill="#F0C42E"/><path d="m79 54 9.2 10.3 3.5-3.5L78.4 46l-2.7 4-7.3-10.7 4.7-4.7 10.7 7.2-4 2.8 14.8 13.3 3.5-3.6L88 45.1l4.7-3.3-20-13.7-10.7 10.6 13.8 20 3.2-4.7ZM117.1 63.3l-3.5-.6-2 2.1 18.7 18.7c.5.6 3.1 4.3 0 7.6l-5.4 5.5c-3.2 3-6.9.4-7.6-.1L98.7 77.8 97 79.4c.3 1 .5 2.6.6 4.5l16.2 16.2.2.2c1.5 1.2 4.3 2.7 7.4 2.7 2.3 0 4.6-.8 6.9-2.8l5.5-5.6c5.1-5.4 2.4-11.8.2-14.4l-17-17Z" fill="#3A3A3A"/><path d="M98 7a59 59 0 0 1 57.4 72.4v.2a36.4 36.4 0 0 1-.5 1.7v.4l-.2.3a98 98 0 0 1-38.5 52.4c-7.4 5.5-14.4 9.5-19.7 12.2v-21.5l-6.1-.8A59 59 0 0 1 98 7Zm0-7a66 66 0 0 0-8.5 131.3v26.2s57.4-21.2 72-73.6l.2-.8c0-.5.2-.9.3-1.3l.2-.8A66 66 0 0 0 98 0Z" fill="#3A3A3A"/></g><defs><clipPath id="a"><path fill="#fff" d="M0 0h171v195H0z"/></clipPath></defs></svg>