<svg width="56" height="98" fill="none" xmlns="http://www.w3.org/2000/svg"><path d="M54.5 32.2H53v-4.6c0-5.1-4.1-9.2-9.1-9.2H9.1c-5 0-9.1 4.1-9.1 9.2v42.8c0 5 4 9.2 9 9.2H44c5 0 9-4.1 9-9.2V67h1.6c.4 0 .8-.3.8-.8V52.5c0-.5-.4-.8-.8-.8H53v-8.8h1.5c.8 0 1.5-.7 1.5-1.5v-7.7c0-.8-.7-1.5-1.5-1.5ZM34 29.1a5.3 5.3 0 0 1 0 10.7c-3 0-5.3-2.4-5.3-5.4 0-3 2.4-5.3 5.3-5.3Zm-15.2 0a5.3 5.3 0 0 1 0 10.7c-2.9 0-5.3-2.4-5.3-5.4 0-3 2.4-5.3 5.3-5.3ZM5.3 49.4c0-3 2.4-5.4 5.3-5.4 3 0 5.3 2.4 5.3 5.4 0 3-2.4 5.4-5.3 5.4-3 0-5.3-2.4-5.3-5.4Zm13.6 19.5c-2.9 0-5.3-2.4-5.3-5.4 0-3 2.4-5.3 5.3-5.3a5.3 5.3 0 0 1 0 10.7Zm1.5-20a6 6 0 0 1 6-6 6 6 0 0 1 6.1 6 6 6 0 0 1-6 6.2 6 6 0 0 1-6-6.1Zm13.7 20c-3 0-5.3-2.4-5.3-5.4 0-3 2.4-5.3 5.3-5.3a5.3 5.3 0 0 1 0 10.7Zm8.3-14.1c-3 0-5.3-2.4-5.3-5.4 0-3 2.4-5.4 5.3-5.4 3 0 5.3 2.4 5.3 5.4 0 3-2.4 5.4-5.3 5.4ZM9.6 15.3h33.7c.9 0 1.5-.7 1.3-1.5L43 3c-.2-1.6-1.8-3-3.5-3h-26A3.7 3.7 0 0 0 10 3L8.3 13.8c0 .8.5 1.5 1.3 1.5ZM43.3 82.7H9.6c-.8 0-1.4.7-1.3 1.5L10 95c.2 1.6 1.8 3 3.5 3h26c1.7 0 3.3-1.4 3.5-3l1.6-10.8c.2-.8-.4-1.5-1.3-1.5Z" fill="#363636"/></svg>