<svg width="97" height="55" fill="none" xmlns="http://www.w3.org/2000/svg"><path d="M84.1 32.6V20c0-1.3 1-2.4 2.4-2.4l8.3 1.6V11c0-2.3-1.7-3.4-4.2-4.2L67.4.2c1.6 1.4 1.9 2 1.9 4.4v45.2c0 2.3-.5 4-2 5.2l23.3-7c2.4-1 4.2-4.3 4.2-6.6v-8L86.5 35c-1.3 0-2.4-1-2.4-2.4Z" fill="#363636"/><path d="m95.1 21-7.6-1.5c-1 0-1.8.9-1.8 1.9v9.9c0 1 .8 1.8 1.8 1.8l7.6-1.4c1.2-.4 1.9-.9 1.9-1.9v-7c0-1-.8-1.5-1.9-1.8ZM67.2 4.5c0-5.1-4.3-4.5-4.3-4.5S6 4.7 3 5.1C-.2 5.6 0 9.5 0 9.5v36.3c0 3.8 2.6 3.8 2.6 3.8L19.1 51l8.1-11.7s1.1-1.8 2.5-1.8 2.4 1.8 2.4 1.8L41.2 53s19 1.9 22.5 1.9c3.7 0 3.5-5 3.5-5V4.4ZM13 37.2c-3.7 0-6.7-4.6-6.7-10.3 0-5.7 3-10.3 6.7-10.3s6.7 4.6 6.7 10.3c0 5.7-3 10.3-6.7 10.3ZM49 38.6c-4.6 0-8.4-5.2-8.4-11.7 0-6.4 3.8-11.7 8.4-11.7 4.7 0 8.5 5.3 8.5 11.7 0 6.5-3.8 11.7-8.5 11.7Z" fill="#363636"/></svg>