<svg width="71" height="87" fill="none" xmlns="http://www.w3.org/2000/svg"><path d="M53.3 1.5C53.3.8 52.8 0 52 0H9c-.7 0-1.3.8-1.3 1.5V5h45.6V1.5ZM54.2 81.8h-9.6V71.4h-7V74H18.8a3.5 3.5 0 0 0-3.2-2.1h-12c-2 0-3.6 1.6-3.6 3.5v3c0 2 1.6 3.5 3.6 3.5h12c1.5 0 2.8-.9 3.3-2.3h18.7v2.3h-9.5c-.5 0-1 .4-1 1V86c0 .5.5 1 1 1h26.1c.5 0 1-.5 1-1v-3.2c0-.6-.5-1-1-1ZM60.7 12.4a7 7 0 0 0-6.8-5H7.1a7 7 0 0 0-7.1 7v46.9c0 3.9 3.3 7 7.1 7H54c3.9 0 7.1-3.1 7.1-7V50.9a23.2 23.2 0 0 0-.3-38.5ZM12.2 62.2a6 6 0 1 1 0-11.9 6 6 0 0 1 0 11.9Zm6-32.7c0 .8-.6 1.5-1.4 1.5h-9c-.7 0-1.4-.7-1.4-1.5V15.4c0-.8.7-1.4 1.4-1.4h9c.8 0 1.4.6 1.4 1.4v14.1ZM47.8 52a20 20 0 1 1 0-40.2 20 20 0 0 1 0 40.2Z" fill="#363636"/><path d="M47.8 44a12.2 12.2 0 1 0 0-24.5 12.2 12.2 0 0 0 0 24.5ZM31.6 33.2a1.4 1.4 0 1 0 0-2.9 1.4 1.4 0 0 0 0 2.9ZM64 33.2a1.4 1.4 0 1 0 0-2.9 1.4 1.4 0 0 0 0 2.9ZM39.1 19.4a1.4 1.4 0 1 0 0-2.8 1.4 1.4 0 0 0 0 2.8ZM56.4 47a1.4 1.4 0 1 0 0-3 1.4 1.4 0 0 0 0 3ZM55.7 19a1.4 1.4 0 1 0 0-2.9 1.4 1.4 0 0 0 0 2.9ZM39.8 47.3a1.4 1.4 0 1 0 0-2.8 1.4 1.4 0 0 0 0 2.8Z" fill="#363636"/></svg>