<svg width="86" height="117" fill="none" xmlns="http://www.w3.org/2000/svg"><path d="M82.8 4H3.3A3.2 3.2 0 0 0 .1 7.2v46.4c0 1.8 1.5 3.2 3.2 3.2h79.5c1.8 0 3.2-1.4 3.2-3.2V7.2C86 5.4 84.6 4 82.8 4ZM8.4 37.2h-.2A3.2 3.2 0 0 1 5 34v-7.2c0-1.8 1.4-3.2 3.2-3.2h.2v13.6Zm61.2 15.2H13.3v-44h56.3v44Zm8.8-17.8a4.1 4.1 0 1 1 0-8.3 4.1 4.1 0 0 1 0 8.3ZM54.7 0H31.5v2.8h23.2V0ZM46.6 64.9v-3h8V59H31.6V62h8V97a6 6 0 0 0-3.6 5.6V117h14.3v-14.3a6 6 0 0 0-3.6-5.6v-28h4.8l5 1.3v-6.8l-5 1.3h-4.8Z" fill="#363636"/></svg>