<svg width="132" height="69" fill="none" xmlns="http://www.w3.org/2000/svg"><path d="M12 .3C6.6.7 1.9 1.9.7 2.9c-.7.6-.7.6-.3 1.2.7.7 3.8 1.6 7.3 2.2 4 .7 12.5.7 13.7 0 1.2-.6 1.6-1.3 1.6-3 0-1.5-.6-2.3-2.2-2.8C19.3.2 15 0 12.1.3ZM25.8.5c-.2.3-.3 2.1-.3 4.1 0 4 .2 3.8-2.2 4h-1l-.3 5.1-1.2.3c-2.5.6-4 2.6-3.7 5.3 0 1.9 1 3.3 2.5 4 1.1.6 1.5.6 11.3.6 5.5 0 10.1 0 10.2.2l-2.6 20.6-2.7 21.7c0 1.6.8 2.6 2.3 2.6 1.3 0 2-.6 2.4-1.9l3-21.8c1.5-11.5 2.8-20.9 3-20.9l2.1 3.2c3 4.6 2.4 4.3 7.6 4.3h4.4v5.6h-5.1c-4.8.2-5.2.2-6 .7-1.5 1.1-1.5 1.4-1.5 11 0 9.5 0 9.8 1.5 11l.8.7h31.4l.8-.7c1.5-1.2 1.6-1.5 1.6-11 0-9.6 0-9.9-1.7-11-.6-.5-1.1-.5-5.8-.6l-5.2-.1v-5.6h4.4c5.2 0 4.7.3 7.6-4.3 1.1-1.8 2.1-3.2 2.2-3.2l3 20.9c1.5 11.5 2.8 21.3 3 21.8.3 1.3 1 2 2.3 2 1.5 0 2.4-1.1 2.3-2.7l-2.7-21.7A902.3 902.3 0 0 1 91 24.1c0-.1 4.6-.2 10.1-.2 9.8 0 10.2 0 11.3-.5 1.5-.8 2.4-2.2 2.6-4.1a4.7 4.7 0 0 0-3.8-5.3l-1.2-.3-.3-5-1-.2c-2.3-.1-2.2.2-2.2-3.9l-.2-4.1c-.3-.4-.6-.5-1.4-.5-.6 0-1.3.1-1.4.3-.2.2-.3 1.5-.3 4 0 2.4-.1 3.7-.4 3.9-.1.2-.9.3-1.6.3-1.6 0-1.7 0-1.7 3V14h-67v-2.3c0-3 0-3.1-1.7-3.1-.7 0-1.4-.1-1.6-.3-.2-.2-.3-1.5-.3-4 0-2.4-.1-3.7-.3-3.9-.2-.2-.8-.3-1.5-.3-.8 0-1.1.1-1.3.5Zm42.8 40.1c3 1 5.4 3.4 6.2 6.2a11 11 0 0 1-.3 5.8c-.7 1.8-2.7 4-4.6 4.9-1.3.6-1.7.7-3.9.7s-2.6 0-4-.7c-1.8-1-3.8-3-4.5-5a11 11 0 0 1-.3-5.7 9.6 9.6 0 0 1 6.1-6.2c2-.6 3.3-.6 5.3 0Z" fill="#363636"/><path d="M63.8 44.4c-2 1-3.5 3.7-3 5.8a5.4 5.4 0 0 0 8 3.7c2-1.2 3-3.6 2.4-5.8a5.4 5.4 0 0 0-5.2-4.2c-.6 0-1.6.3-2.2.5ZM36 .2c-3.8.6-4.4 1-4.4 3.4 0 1.8.4 2.4 2.2 3 1.6.4 7.2.5 10.5 0C51.3 6 55.7 4.2 54 3c-1.2-.9-4.9-1.8-9-2.4a66 66 0 0 0-9-.3ZM89.5.3c-6.3.5-11.9 2-11.9 3.1 0 1.8 7.9 3.5 15.7 3.5 5.8 0 7.1-.6 7.1-3.3 0-1.8-.6-2.6-2.3-3-1.7-.5-5.7-.6-8.6-.3ZM112.8.3c-1.8.2-3 .8-3.5 1.5-.3.7-.3 2.9.2 3.5 1 1.4 1.7 1.5 7 1.5 3.7 0 5.9-.1 8-.5 3.5-.6 6.5-1.5 7.2-2.2.5-.6.5-.6-.3-1.2-1.3-1.1-6-2.2-11.9-2.6-3.4-.3-4.5-.3-6.7 0Z" fill="#363636"/></svg>